<?xml version="1.0" ?><svg viewBox="0 0 512 512" xmlns="http://www.w3.org/2000/svg"><g data-name="Capa 9" id="Capa_9"><path d="M408,378.08H104a25.59,25.59,0,0,1-25.56-25.57v-193A25.59,25.59,0,0,1,104,133.92H408a25.59,25.59,0,0,1,25.56,25.57v193A25.59,25.59,0,0,1,408,378.08ZM104,145.92a13.58,13.58,0,0,0-13.56,13.57v193A13.58,13.58,0,0,0,104,366.08H408a13.58,13.58,0,0,0,13.56-13.57v-193A13.58,13.58,0,0,0,408,145.92Z"/><path d="M256,262a6,6,0,0,1-3.39-1.05L88.91,148.75a6,6,0,1,1,6.78-9.9L256,248.73,416.31,138.85a6,6,0,1,1,6.78,9.9L259.39,261A6,6,0,0,1,256,262Z"/></g></svg>