<?xml version="1.0" encoding="UTF-8" standalone="no"?>
<svg width="53px" height="56px" viewBox="0 0 53 56" version="1.1" xmlns="http://www.w3.org/2000/svg" xmlns:xlink="http://www.w3.org/1999/xlink">
    <!-- Generator: Sketch 41.2 (35397) - http://www.bohemiancoding.com/sketch -->
    <title>Notifications</title>
    <desc>Created with Sketch.</desc>
    <defs></defs>
    <g id="Page-1" stroke="none" stroke-width="1" fill="none" fill-rule="evenodd">
        <g id="Notifications" fill="#000000">
            <path d="M52.3,46.2 L0,46.2 L2,39.1 L2,21.2 C2,9.8 11.9,0.6 24.1,0.6 L27.5,0.6 C39.7,0.6 49.6,9.9 49.6,21.2 L49.6,39 L52.3,46.2 Z M4,43.2 L48,43.2 L46.7,39.5 L46.7,21.2 C46.7,11.5 38.1,3.6 27.6,3.6 L24.2,3.6 C13.7,3.6 5.1,11.5 5.1,21.2 L5.1,39.5 L4,43.2 Z" id="Shape"></path>
            <path d="M26.2,55.5 C20.5,55.5 15.9,51.4 15.9,46.3 L18.9,46.3 C18.9,49.7 22.2,52.5 26.2,52.5 C30.2,52.5 33.5,49.7 33.5,46.3 L36.5,46.3 C36.5,51.4 31.9,55.5 26.2,55.5 Z" id="Shape"></path>
        </g>
    </g>
</svg>