<?xml version="1.0" encoding="iso-8859-1"?>
<!-- Generator: Adobe Illustrator 16.0.0, SVG Export Plug-In . SVG Version: 6.00 Build 0)  -->
<!DOCTYPE svg PUBLIC "-//W3C//DTD SVG 1.1//EN" "http://www.w3.org/Graphics/SVG/1.1/DTD/svg11.dtd">
<svg version="1.1" id="Capa_1" xmlns="http://www.w3.org/2000/svg" xmlns:xlink="http://www.w3.org/1999/xlink" x="0px" y="0px"
	 width="382.4px" height="382.4px" viewBox="0 0 382.4 382.4" style="enable-background:new 0 0 382.4 382.4;" xml:space="preserve"
	>
<g>
	<g>
		<polygon points="315.5,153 338.5,91.7 382.4,76.4 338.5,61.2 315.5,0 292.601,61.2 248.601,76.4 292.601,91.7 		"/>
		<path d="M162.5,143.4L124.3,38.2L86.1,143.4L0,172.1l86.1,28.7L124.3,306l38.2-105.2l86.101-28.7L162.5,143.4z M149.1,183.6
			l-24.9,65l-24.9-65l-42.1-11.5l42.1-11.5l24.9-65l24.9,65l42.1,11.5L149.1,183.6z"/>
		<polygon points="277.3,229.4 254.3,290.7 210.3,306 254.3,321.2 277.3,382.4 300.2,321.2 344.2,306 300.2,290.7 		"/>
	</g>
</g>
<g>
</g>
<g>
</g>
<g>
</g>
<g>
</g>
<g>
</g>
<g>
</g>
<g>
</g>
<g>
</g>
<g>
</g>
<g>
</g>
<g>
</g>
<g>
</g>
<g>
</g>
<g>
</g>
<g>
</g>
</svg>
